<?xml version="1.0" encoding="UTF-8" standalone="no"?>
<!-- Created with Inkscape (http://www.inkscape.org/) -->

<svg
   xmlns:dc="http://purl.org/dc/elements/1.1/"
   xmlns:cc="http://creativecommons.org/ns#"
   xmlns:rdf="http://www.w3.org/1999/02/22-rdf-syntax-ns#"
   xmlns:svg="http://www.w3.org/2000/svg"
   xmlns="http://www.w3.org/2000/svg"
   xmlns:sodipodi="http://sodipodi.sourceforge.net/DTD/sodipodi-0.dtd"
   xmlns:inkscape="http://www.inkscape.org/namespaces/inkscape"
   width="127.04403mm"
   height="127.04411mm"
   viewBox="0 0 450.15601 450.1563"
   id="svg3619"
   version="1.1"
   inkscape:version="0.91 r13725"
   sodipodi:docname="Quologia.svg">
  <defs
     id="defs3621" />
  <sodipodi:namedview
     id="base"
     pagecolor="#ffffff"
     bordercolor="#666666"
     borderopacity="1.0"
     inkscape:pageopacity="0.0"
     inkscape:pageshadow="2"
     inkscape:zoom="0.35"
     inkscape:cx="-237.06485"
     inkscape:cy="173.64957"
     inkscape:document-units="px"
     inkscape:current-layer="layer1"
     showgrid="false"
     fit-margin-top="0"
     fit-margin-left="0"
     fit-margin-right="0"
     fit-margin-bottom="0"
     units="mm"
     inkscape:window-width="1440"
     inkscape:window-height="852"
     inkscape:window-x="50"
     inkscape:window-y="23"
     inkscape:window-maximized="0" />
  <metadata
     id="metadata3624">
    <rdf:RDF>
      <cc:Work
         rdf:about="">
        <dc:format>image/svg+xml</dc:format>
        <dc:type
           rdf:resource="http://purl.org/dc/dcmitype/StillImage" />
        <dc:title></dc:title>
      </cc:Work>
    </rdf:RDF>
  </metadata>
  <g
     inkscape:label="Layer 1"
     inkscape:groupmode="layer"
     id="layer1"
     transform="translate(-117.77914,-255.85548)">
    <path
       style="opacity:1;fill:#2c3e50;fill-opacity:1;stroke:none"
       d="m 337.77914,255.85548 c -121.503,0 -220,98.4972 -220,220 0,75.9392 38.448,142.8707 96.968,182.4063 2.926,1.9767 5.914,3.8813 8.938,5.7187 6.709,4.0766 13.657,7.8008 20.812,11.1563 l 32.219,-77.7813 c -32.178,-16.199 -57.05,-44.7802 -68.312,-79.5 l 101.25,0 34.812,-84.0312 -6.687,0 -104.313,0 -25.062,0 c 17.694,-54.5271 68.948,-93.9375 129.375,-93.9375 14.931,0 29.309,2.3969 42.75,6.8437 l 32.218,-77.7812 c -23.394,-8.4773 -48.647,-13.0937 -74.968,-13.0938 z m 93.281,20.7188 -32.219,77.7812 c 44.424,22.3704 74.906,68.3697 74.906,121.5 0,21.466 -4.984,41.7598 -13.843,59.8126 l -96.282,-96.3126 -36.5,88.125 70.5,70.5 c -18.054,8.8619 -38.374,13.8439 -59.843,13.8438 -14.925,0 -29.281,-2.4311 -42.719,-6.875 l -32.219,77.7812 c 23.396,8.482 48.621,13.125 74.938,13.125 1.895,0 3.772,-0.0457 5.656,-0.0937 l 0.125,0 c 1.845,-0.048 3.698,-0.1258 5.531,-0.2187 0.398,-0.02 0.79,-0.0415 1.188,-0.0626 1.475,-0.083 2.938,-0.1695 4.406,-0.2812 1.862,-0.1417 3.714,-0.3122 5.562,-0.5 1.4,-0.1421 2.796,-0.3004 4.188,-0.4688 0.688,-0.083 1.376,-0.1605 2.062,-0.25 0.06,-0.01 0.125,-0.0232 0.188,-0.0312 1.541,-0.2024 3.063,-0.4223 4.594,-0.6562 1.642,-0.2511 3.276,-0.4942 4.906,-0.7813 0.448,-0.079 0.896,-0.1684 1.344,-0.25 0.408,-0.074 0.811,-0.1421 1.218,-0.2187 1.141,-0.2149 2.272,-0.4552 3.407,-0.6876 0.186,-0.038 0.376,-0.0547 0.562,-0.0937 1.581,-0.3282 3.15,-0.7006 4.719,-1.0625 1.053,-0.2431 2.109,-0.4918 3.156,-0.75 0.872,-0.2148 1.726,-0.4311 2.594,-0.6562 0.96,-0.2491 1.92,-0.4884 2.875,-0.75 1.609,-0.441 3.218,-0.93 4.812,-1.4063 0.436,-0.1303 0.878,-0.2421 1.313,-0.375 0.39,-0.1193 0.767,-0.2535 1.156,-0.375 1.393,-0.4345 2.775,-0.8512 4.156,-1.3125 0.524,-0.1748 1.041,-0.3838 1.563,-0.5625 0.227,-0.078 0.461,-0.1404 0.687,-0.2187 1.997,-0.6912 3.994,-1.4068 5.969,-2.1563 0.661,-0.2503 1.311,-0.5248 1.969,-0.7813 0.249,-0.0969 0.502,-0.1834 0.75,-0.2812 0.157,-0.0618 0.312,-0.1254 0.469,-0.1875 1.509,-0.5986 3.007,-1.2132 4.5,-1.8437 0.04,-0.0182 0.08,-0.0446 0.125,-0.0626 0.332,-0.1404 0.669,-0.2642 1,-0.4062 0.21,-0.0902 0.415,-0.1904 0.625,-0.2812 1.413,-0.6116 2.82,-1.235 4.218,-1.875 0.208,-0.095 0.418,-0.1857 0.625,-0.2813 0.575,-0.2655 1.148,-0.5423 1.719,-0.8125 0.298,-0.1409 0.606,-0.2648 0.906,-0.4062 0.295,-0.1406 0.582,-0.2957 0.875,-0.4376 1.219,-0.5898 2.422,-1.2045 3.625,-1.8124 0.258,-0.1303 0.525,-0.2438 0.782,-0.375 0.06,-0.0318 0.125,-0.062 0.187,-0.0938 1.397,-0.7156 2.777,-1.4431 4.156,-2.1875 0.128,-0.069 0.249,-0.1497 0.375,-0.2187 0.826,-0.4475 1.65,-0.8861 2.469,-1.3438 0.2,-0.1117 0.394,-0.2314 0.594,-0.3438 0.814,-0.4592 1.629,-0.9369 2.437,-1.4062 0.206,-0.1194 0.42,-0.2245 0.625,-0.3438 0.117,-0.0684 0.227,-0.15 0.344,-0.2187 0.928,-0.5451 1.831,-1.0979 2.75,-1.6563 0.196,-0.119 0.398,-0.2241 0.594,-0.3437 1.31,-0.8008 2.615,-1.61 3.906,-2.4375 0.908,-0.5818 1.82,-1.1551 2.719,-1.75 l 46.562,46.5625 62.313,-62.3125 -46.594,-46.5938 c 0.59,-0.8913 1.173,-1.787 1.75,-2.6874 0.126,-0.1969 0.25,-0.3965 0.375,-0.5938 0.696,-1.0925 1.386,-2.2068 2.063,-3.3125 0,-0.008 0,-0.0237 0,-0.0313 0.681,-1.1129 1.368,-2.2182 2.031,-3.3437 1.324,-2.2518 2.598,-4.5105 3.844,-6.8125 0,-0.008 0,-0.0232 0,-0.0312 0.619,-1.1425 1.245,-2.2826 1.843,-3.4376 0,-0.008 0,-0.023 0,-0.0312 4.213,-8.1348 7.937,-16.5628 11.125,-25.25 0.01,-0.0308 0.02,-0.0629 0.03,-0.0938 0.446,-1.217 0.888,-2.4291 1.313,-3.6562 0.01,-0.041 0.02,-0.085 0.03,-0.125 0.724,-2.0938 1.432,-4.1906 2.094,-6.3125 0.01,-0.0412 0.02,-0.0838 0.03,-0.125 0.103,-0.3335 0.21,-0.6657 0.312,-1 0,-0.009 0,-0.0217 0,-0.0313 0.389,-1.2716 0.76,-2.5337 1.125,-3.8124 0.03,-0.1135 0.06,-0.2302 0.09,-0.3438 0.992,-3.489 1.897,-7.0051 2.719,-10.5625 0.06,-0.2508 0.13,-0.499 0.187,-0.75 0,-0.01 0,-0.0214 0,-0.0313 1.063,-4.6775 1.96,-9.4329 2.719,-14.2187 0.09,-0.5629 0.196,-1.1232 0.281,-1.6875 0,-0.0101 0,-0.0211 0,-0.0312 0.52,-3.4572 0.956,-6.9608 1.313,-10.4688 0.188,-1.8534 0.358,-3.6957 0.5,-5.5625 0.01,-0.0837 0.02,-0.1665 0.03,-0.25 0,-0.0104 0,-0.0209 0,-0.0313 0.41,-5.4862 0.625,-11.0331 0.625,-16.625 0,-2.0187 -0.04,-4.0256 -0.09,-6.0312 -0.04,-1.3789 -0.09,-2.7526 -0.156,-4.125 -0.03,-0.7202 -0.05,-1.4379 -0.09,-2.1562 -0.03,-0.4809 -0.06,-0.9575 -0.09,-1.4376 -0.08,-1.2517 -0.152,-2.5039 -0.25,-3.75 -0.01,-0.1452 -0.02,-0.2923 -0.03,-0.4374 -0.02,-0.2296 -0.04,-0.4582 -0.06,-0.6876 -0.137,-1.6337 -0.297,-3.2516 -0.469,-4.875 -0.01,-0.1149 -0.02,-0.2288 -0.03,-0.3437 -0.02,-0.1985 -0.04,-0.3954 -0.06,-0.5937 -0.194,-1.7565 -0.421,-3.5063 -0.656,-5.25 -0.205,-1.5134 -0.422,-3.0279 -0.657,-4.5313 -0.07,-0.4285 -0.118,-0.8536 -0.187,-1.2813 -0.05,-0.2929 -0.108,-0.5823 -0.156,-0.875 -0.272,-1.6312 -0.568,-3.2561 -0.875,-4.875 -0.361,-1.9003 -0.747,-3.8048 -1.157,-5.6874 -0.09,-0.3956 -0.161,-0.7928 -0.25,-1.1876 -0.288,-1.2904 -0.595,-2.5619 -0.906,-3.8437 -0.301,-1.2426 -0.615,-2.4845 -0.937,-3.7187 -0.01,-0.0415 -0.02,-0.0836 -0.03,-0.125 -0.207,-0.7916 -0.41,-1.5871 -0.625,-2.375 -0.132,-0.4809 -0.272,-0.958 -0.407,-1.4376 -0.387,-1.3785 -0.774,-2.7263 -1.187,-4.0937 -0.345,-1.1411 -0.7,-2.2731 -1.063,-3.4063 -0.22,-0.6885 -0.429,-1.3769 -0.656,-2.0624 -0.183,-0.5542 -0.375,-1.1042 -0.562,-1.6563 -0.424,-1.2445 -0.868,-2.5156 -1.313,-3.75 -0.437,-1.2139 -0.886,-2.4212 -1.344,-3.625 -0.218,-0.5749 -0.432,-1.1462 -0.656,-1.7187 -0.25,-0.6401 -0.494,-1.2692 -0.75,-1.9063 -0.449,-1.1183 -0.909,-2.2346 -1.375,-3.3437 -0.04,-0.0857 -0.09,-0.1645 -0.125,-0.25 -0.305,-0.724 -0.624,-1.4363 -0.937,-2.1563 -0.203,-0.4653 -0.389,-0.9426 -0.594,-1.4063 -0.208,-0.4699 -0.414,-0.938 -0.625,-1.4062 -21.609,-47.8585 -59.853,-86.6033 -107.344,-108.875 z"
       id="path3183-5"
       inkscape:connector-curvature="0" />
  </g>
</svg>
